<svg id="Capa_1" enable-background="new 0 0 511.887 511.887" height="512" viewBox="0 0 511.887 511.887" width="512" xmlns="http://www.w3.org/2000/svg"><g><path d="m457.058 54.829c-73.106-73.106-192.059-73.106-265.165 0-61.42 61.42-71.229 155.195-29.446 226.961-4.75.619-9.339 2.743-12.98 6.385-6.914 6.914-8.374 17.242-4.391 25.604l-12.431 12.431c-8.362-3.983-18.691-2.522-25.604 4.391-6.685 6.685-8.27 16.562-4.767 24.767l-81.68 62.334c-1.924 1.485-3.638 2.985-5.24 4.587-20.47 20.47-20.469 53.777 0 74.246 20.47 20.469 53.776 20.47 74.246 0 1.606-1.606 3.154-3.38 4.601-5.273l-.048-.036c.782-.922 62.367-81.611 62.367-81.611 8.205 3.503 18.083 1.918 24.767-4.767 6.914-6.914 8.374-17.243 4.391-25.604l12.431-12.431c8.362 3.983 18.691 2.523 25.604-4.391 3.641-3.641 5.766-8.231 6.385-12.98 71.766 41.782 165.541 31.974 226.961-29.446 73.105-73.107 73.105-192.06-.001-265.167zm-374.775 427.323c-1.045 1.368-2.153 2.639-3.291 3.777-14.621 14.621-38.412 14.621-53.033 0s-14.621-38.412 0-53.033c1.144-1.144 2.385-2.229 3.766-3.293l81.954-62.543 33.149 33.149c-14.161 18.556-62.531 81.925-62.545 81.943zm88.397-87.911c-2.924 2.925-7.682 2.925-10.606 0l-42.427-42.427c-2.924-2.924-2.924-7.682 0-10.606s7.682-2.924 10.607 0l42.426 42.426c2.924 2.925 2.924 7.683 0 10.607zm5.303-26.517-31.82-31.82 10.607-10.607 31.82 31.82zm37.123-15.91c-2.925 2.925-7.682 2.925-10.607 0l-42.426-42.426c-2.925-2.924-2.925-7.682 0-10.607 2.924-2.924 7.682-2.924 10.606 0l42.427 42.427c2.924 2.924 2.924 7.682 0 10.606zm233.345-42.426c-67.258 67.258-176.694 67.258-243.952 0s-67.258-176.694 0-243.952c67.258-67.258 176.694-67.258 243.952 0s67.258 176.694 0 243.952z"/><path d="m435.845 76.043c-27.805-27.805-64.734-44.126-103.983-45.957-38.983-1.819-77.009 10.746-107.072 35.38-3.204 2.625-3.674 7.35-1.048 10.554 2.623 3.201 7.351 3.673 10.555 1.048 56.829-46.563 138.916-42.444 190.942 9.582 55.561 55.561 55.561 145.965 0 201.526s-145.964 55.561-201.526 0c-52.026-52.026-56.145-134.114-9.582-190.942 2.626-3.203 2.148-7.93-1.048-10.555-3.204-2.625-7.929-2.156-10.554 1.048-24.633 30.063-37.198 68.088-35.379 107.072 1.831 39.25 18.152 76.178 45.957 103.983 61.409 61.409 161.329 61.409 222.739 0s61.408-161.33-.001-222.739z"/></g></svg>