<svg xmlns="http://www.w3.org/2000/svg" xmlns:xlink="http://www.w3.org/1999/xlink" version="1.1" x="0px" y="0px" viewBox="0 0 512 640" style="enable-background:new 0 0 512 512;" xml:space="preserve"><g><g><path d="M478.354,409.224L478.354,409.224c-8.347,29.375-67.931,69.276-77.686,72.267c-23.234-0.532-57.293-15.839-98.584-44.323    c-38.505-26.581-82.302-64.189-123.317-105.933c-41.021-41.748-77.86-86.147-103.678-125.054    c-27.711-41.74-42.34-75.983-42.358-99.108c1.469-4.216,13.073-22.992,30.031-42.052c19.524-21.913,37.665-34.495,49.757-34.495    c4.207,0,7.614,1.462,10.638,4.552l71.985,75.304c7.008,7.158,6.778,17.637-0.594,26.793l-19.159,18.796    c-12.977,12.669-14.512,33.476-3.495,47.436c34.134,44.646,90.874,102.377,135.017,137.319c6.328,5.144,14.033,7.857,22.279,7.857    c9.478,0,18.735-3.681,25.448-10.159l19.261-18.808c4.579-3.469,9.522-5.308,14.293-5.308c4.771,0,9.129,1.858,12.588,5.415    l74.126,73.237C479.177,397.309,480.272,402.48,478.354,409.224 M484.598,383.457l-74.105-73.21    c-5.995-6.119-13.893-9.512-22.299-9.512c-7.957,0-15.895,2.938-22.961,8.441l-0.297,0.24l-19.79,19.311    c-4.165,4.024-9.984,6.319-15.955,6.319c-5.088,0-9.823-1.675-13.711-4.837l-0.068-0.068    c-43.381-34.331-99.189-91.107-132.705-134.977l-0.099-0.116c-7.592-9.588-4.777-22.473,2.297-29.403l19.443-19.084l0.49-0.536    c11.924-14.444,11.924-33,0.094-45.062L132.947,25.67c-5.644-5.763-12.526-8.701-20.427-8.701    c-21.327,0-45.225,22.237-61.542,40.897C37.694,73.085,19.207,98.4,19.131,106.353c-0.261,26.242,14.761,62.332,44.613,107.281    c26.279,39.619,63.693,84.752,105.301,127.084c41.599,42.332,86.088,80.547,125.288,107.585    c44.489,30.686,80.394,46.411,106.734,46.728h0.124c8.302,0,33.47-18.204,42.47-25.23c16.412-12.776,37.684-32.069,45.833-51.38    C496.82,401.054,490.853,389.832,484.598,383.457z"/></g></g></svg>