<?xml version="1.0" encoding="UTF-8"?>
<svg viewBox="0 0 24 24" version="1.1" xmlns="http://www.w3.org/2000/svg" xmlns:xlink="http://www.w3.org/1999/xlink">
    <defs></defs>
    <g id="icons" stroke="none" stroke-width="1">
        <g id="Artboard" transform="translate(-727.000000, -100.000000)">
            <path d="M738.998895,100 C732.373277,100 727,105.372541 727,112.000368 C727,117.302189 730.438043,121.799564 735.206513,123.386353 C735.8069,123.496854 736.025691,123.126308 736.025691,122.808067 C736.025691,122.523712 736.015378,121.768624 736.009485,120.767488 C732.671629,121.492372 731.967372,119.158599 731.967372,119.158599 C731.421499,117.772185 730.634734,117.403112 730.634734,117.403112 C729.545198,116.659075 730.717241,116.673808 730.717241,116.673808 C731.921698,116.758525 732.555235,117.910679 732.555235,117.910679 C733.625618,119.744252 735.364161,119.214586 736.047792,118.907394 C736.156819,118.132417 736.466957,117.603487 736.809509,117.303662 C734.144971,117.00089 731.343411,115.971024 731.343411,111.372725 C731.343411,110.062924 731.811197,108.991068 732.578808,108.152736 C732.455048,107.849228 732.043249,106.628564 732.696676,104.976948 C732.696676,104.976948 733.703705,104.654287 735.996225,106.207189 C736.95316,105.940514 737.980079,105.807913 739.000368,105.802756 C740.019921,105.807913 741.046103,105.940514 742.004512,106.207189 C744.295558,104.654287 745.301114,104.976948 745.301114,104.976948 C745.956015,106.628564 745.544216,107.849228 745.421192,108.152736 C746.190276,108.991068 746.654379,110.062924 746.654379,111.372725 C746.654379,115.982811 743.848399,116.997207 741.175757,117.294085 C741.605973,117.664631 741.989779,118.396881 741.989779,119.516621 C741.989779,121.120354 741.975045,122.414684 741.975045,122.808067 C741.975045,123.129255 742.191627,123.502747 742.800117,123.385617 C747.564904,121.795144 751,117.300715 751,112.000368 C751,105.372541 745.626723,100 738.998895,100" id="github"></path>
        </g>
    </g>
</svg>