<svg viewBox="0 0 18 18" version="1.1" xmlns="http://www.w3.org/2000/svg" xmlns:xlink="http://www.w3.org/1999/xlink">
    <defs></defs>
    <g id="icons" stroke="none" stroke-width="1">
        <g id="Artboard" transform="translate(-424.000000, -103.000000)">
            <path d="M426.144077,103 C427.326538,103 428.286769,103.960231 428.286769,105.143385 C428.286769,106.327231 427.326538,107.287462 426.144077,107.287462 C424.956769,107.287462 424,106.327231 424,105.143385 C424,103.960231 424.956769,103 426.144077,103 L426.144077,103 Z M424.293538,108.912308 L427.993231,108.912308 L427.993231,120.806154 L424.293538,120.806154 L424.293538,108.912308 Z M430.230769,108.833385 L433.774,108.833385 L433.774,110.459615 L433.824538,110.459615 C434.317462,109.524308 435.524154,108.538462 437.322769,108.538462 C441.064692,108.538462 441.756308,111.001 441.756308,114.204308 L441.756308,120.727231 L438.060769,120.727231 L438.060769,114.943 C438.060769,113.563923 438.036538,111.789538 436.139615,111.789538 C434.216385,111.789538 433.922846,113.292538 433.922846,114.844692 L433.922846,120.727231 L430.230769,120.727231 L430.230769,108.833385 Z" id="linkedin"></path>
        </g>
    </g>
</svg>