<svg version="1.1" id="Capa_1" xmlns="http://www.w3.org/2000/svg" xmlns:xlink="http://www.w3.org/1999/xlink" x="0px" y="0px"
	 viewBox="0 0 511.999 511.999" style="enable-background:new 0 0 511.999 511.999;" xml:space="preserve">
<path style="fill:#FEA832;" d="M501.783,235.237c-29.7-10.499-49.799-38.699-49.799-70.199c0.601-5.101-1.8-9.3-5.7-12.9
	c-3.3-2.701-8.399-3.9-12.599-3.301c-25.201,3.6-49.2-3.6-67.5-18.3s-31.201-36.899-33.3-62.699c-0.3-4.501-3.001-8.701-6.901-11.4
	c-3.9-2.401-8.699-3.001-13.2-1.201c-40.8,14.7-79.2-11.1-94.499-46.199c-3.001-6.601-9.901-10.201-17.1-8.699
	C143.584,13.239,91.784,49.399,56.385,95c-81.899,105.3-73.5,250.201,18.3,342.301c99.901,99.598,261,99.598,360.601,0
	c46.199-46.201,76.7-112.063,76.7-182.262C511.383,245.138,511.083,238.539,501.783,235.237z"/>
<path style="fill:#FE9923;" d="M511.983,255.038c0,70.199-30.5,136.061-76.7,182.262c-99.6,99.598-260.7,99.598-360.601,0
	l291.501-306.763c18.3,14.7,42.299,21.899,67.5,18.3c4.2-0.599,9.3,0.601,12.599,3.301c3.9,3.6,6.301,7.798,5.7,12.9
	c0,31.5,20.099,59.7,49.799,70.199C511.083,238.539,511.383,245.138,511.983,255.038z"/>
<path style="fill:#994C0F;" d="M193.484,312.499c-7.5-6.599-17.701-10.499-28.5-10.499c-24.901,0-45,20.099-45,45
	c0,11.7,4.501,22.2,11.7,30c8.099,9.3,20.099,15,33.3,15c24.901,0,45-20.101,45-45C209.983,332.899,203.683,320.6,193.484,312.499z"
	/>
<g>
	<path style="fill:#713708;" d="M314.983,302c-24.814,0-45-20.186-45-45s20.186-45,45-45s45,20.186,45,45S339.798,302,314.983,302z"
		/>
	<path style="fill:#713708;" d="M299.983,422c-16.538,0-30-13.462-30-30s13.462-30,30-30s30,13.462,30,30S316.521,422,299.983,422z"
		/>
</g>
<path style="fill:#994C0F;" d="M179.983,212c-16.538,0-30-13.462-30-30s13.462-30,30-30s30,13.462,30,30S196.521,212,179.983,212z"
	/>
<circle style="fill:#713708;" cx="404.238" cy="318.13" r="15"/>
<circle style="fill:#994C0F;" cx="104.228" cy="258.13" r="15"/>
<path style="fill:#713708;" d="M209.983,347c0,24.899-20.099,45-45,45c-13.2,0-25.201-5.7-33.3-15l61.8-64.501
	C203.683,320.6,209.983,332.899,209.983,347z"/>
<g>
</g>
<g>
</g>
<g>
</g>
<g>
</g>
<g>
</g>
<g>
</g>
<g>
</g>
<g>
</g>
<g>
</g>
<g>
</g>
<g>
</g>
<g>
</g>
<g>
</g>
<g>
</g>
<g>
</g>
</svg>
