<svg viewBox="0 0 20 24" version="1.1" xmlns="http://www.w3.org/2000/svg" xmlns:xlink="http://www.w3.org/1999/xlink">
    <defs></defs>
    <g id="icons">
        <g id="Artboard" transform="translate(-831.000000, -150.000000)">
            <path d="M839,152.290503 L839,152 C839,150.895431 839.895431,150 841,150 C842.104569,150 843,150.895431 843,152 L843,152.290482 C845.891489,153.152608 848,155.834553 848,158.994557 L848,166.002292 C848,166.546655 848.447248,167 848.998957,167 C850.099901,167 851,167.895431 851,169 C851,170.11227 850.108691,171 849.009205,171 L832.990795,171 C831.898212,171 831,170.104569 831,169 C831,167.88773 831.895898,167 833.001043,167 C833.55734,167 834,166.553311 834,166.002292 L834,158.994557 C834,155.827046 836.112411,153.151296 839,152.290503 Z M840,152.071081 C840.326688,152.024238 840.660572,152 841,152 C841.339521,152 841.673397,152.024234 842,152.071054 L842,152 C842,151.447715 841.552285,151 841,151 C840.447715,151 840,151.447715 840,152 L840,152.071081 Z M844,171 C844,172.656854 842.656854,174 841,174 C839.343146,174 838,172.656854 838,171 L844,171 Z M839,171 C839,172.104569 839.895431,173 841,173 C842.104569,173 843,172.104569 843,171 L839,171 Z M835,166.002292 C835,167.106752 834.108472,168 833.001043,168 C832.444803,168 832,168.443388 832,169 C832,169.550392 832.448611,170 832.990795,170 L849.009205,170 C849.558623,170 850,169.557762 850,169 C850,168.449605 849.549508,168 848.998957,168 C847.896504,168 847,167.100491 847,166.002292 L847,158.994557 C847,155.690623 844.310053,153 841,153 C837.691094,153 835,155.686915 835,158.994557 L835,166.002292 Z" id="notifications"></path>
        </g>
    </g>
</svg>